<?xml version="1.0" encoding="UTF-8"?>
<svg version="1.1" xmlns="http://www.w3.org/2000/svg" width="500" height="500">
<path d="M0 0 C165 0 330 0 500 0 C500 165 500 330 500 500 C335 500 170 500 0 500 C0 335 0 170 0 0 Z " fill="#FEFEFE" transform="translate(0,0)"/>
<path d="M0 0 C1.0209375 -0.02900391 1.0209375 -0.02900391 2.0625 -0.05859375 C4.87800108 0.66231076 5.5201448 1.97865968 7 4.4375 C7.34057617 7.09472656 7.34057617 7.09472656 7.29296875 10.078125 C7.28330078 11.14804688 7.27363281 12.21796875 7.26367188 13.3203125 C7.23853516 14.43148437 7.21339844 15.54265625 7.1875 16.6875 C7.16719727 18.37746094 7.16719727 18.37746094 7.14648438 20.1015625 C7.11115645 22.88069264 7.0618252 25.65885363 7 28.4375 C7.88203598 28.42861755 8.76407196 28.41973511 9.6728363 28.4105835 C18.01403265 28.33019936 26.35509757 28.26941498 34.69659328 28.23025131 C38.98433999 28.20943942 43.27176472 28.18124008 47.55932617 28.13574219 C51.70258276 28.0920543 55.84553104 28.06831485 59.98900032 28.05799103 C61.56415721 28.05064057 63.13929858 28.03628733 64.71432304 28.01457977 C73.16368629 27.90283399 80.56040824 27.86112746 88 32.4375 C88.79792969 32.89511719 89.59585938 33.35273438 90.41796875 33.82421875 C98.81297181 39.99537994 104.3100951 49.14324784 106 59.4375 C106.0938119 61.31768209 106.13892279 63.2006422 106.14717102 65.08314514 C106.15790398 66.77130844 106.15790398 66.77130844 106.16885376 68.49357605 C106.17154266 69.71909683 106.17423157 70.94461761 106.17700195 72.20727539 C106.18357315 73.50546204 106.19014435 74.80364868 106.19691467 76.14117432 C106.21789185 80.43915586 106.22831365 84.73713749 106.23828125 89.03515625 C106.24233169 90.51983597 106.2464487 92.00451551 106.25063133 93.48919487 C106.26967199 100.4688101 106.2839033 107.44841486 106.2922433 114.42805105 C106.30200066 122.45934756 106.3282854 130.49036735 106.36874419 138.52156645 C106.39901018 144.74516014 106.4137222 150.968675 106.41702431 157.19234079 C106.41936357 160.90172439 106.42817536 164.61081203 106.45348549 168.32011604 C106.48132868 172.46757219 106.47690325 176.61441891 106.4699707 180.76196289 C106.48918579 182.57898964 106.48918579 182.57898964 106.50878906 184.432724 C106.43956414 195.84936406 103.88104102 205.92521054 96 214.4375 C95.26523437 215.25154297 95.26523437 215.25154297 94.515625 216.08203125 C85.37390958 225.02009459 73.9860823 225.95942914 61.89506531 225.91471863 C58.82536526 225.87650544 55.75676129 225.81393792 52.6875 225.75 C50.57880265 225.72487137 48.47007627 225.70206631 46.36132812 225.68164062 C41.24015739 225.62704118 36.12040581 225.54102298 31 225.4375 C30.77562256 226.10120605 30.55124512 226.76491211 30.32006836 227.44873047 C28.5897043 231.36645136 26.28750263 234.72740583 23.87890625 238.2578125 C23.37834213 238.99828827 22.87777802 239.73876404 22.36204529 240.50167847 C21.30606322 242.06142226 20.24774986 243.61958995 19.18725586 245.17626953 C17.5659587 247.55742031 15.95336415 249.94428758 14.34179688 252.33203125 C13.31301217 253.84930574 12.28373201 255.36624442 11.25390625 256.8828125 C10.53189781 257.95162155 10.53189781 257.95162155 9.79530334 259.04202271 C9.34150803 259.70636322 8.88771271 260.37070374 8.42016602 261.05517578 C8.02426773 261.63743927 7.62836945 262.21970276 7.22047424 262.8196106 C3.84819115 267.2899885 3.84819115 267.2899885 0.125 267.9375 C-4.11917622 267.25843181 -5.21019933 265.68387136 -8 262.4375 C-9.57444897 259.7393418 -10.88005846 256.92642434 -12.2265625 254.109375 C-20.43928506 237.03516251 -20.43928506 237.03516251 -34.51647949 225.39318848 C-45.34363276 222.55630036 -57.14846882 223.52297224 -68.15084839 224.89761353 C-78.09269162 226.10110183 -85.97891881 222.85183521 -94.125 217.3125 C-100.55737981 211.61625085 -105.46435792 202.03041777 -106.27984238 193.5155201 C-106.38967622 189.97802721 -106.40528376 186.45153596 -106.38818359 182.91235352 C-106.39225502 181.55633116 -106.39760009 180.20031214 -106.40411377 178.84429932 C-106.41772676 175.18097883 -106.41251348 171.51791338 -106.40297651 167.85458875 C-106.39534699 164.00843479 -106.40243477 160.16230173 -106.40713501 156.31614685 C-106.41258367 149.857779 -106.40542507 143.39951428 -106.39111328 136.94116211 C-106.37479535 129.49184985 -106.38007255 122.04278406 -106.3965925 114.59347779 C-106.41024107 108.1804687 -106.4121104 101.76753347 -106.40427649 95.35451454 C-106.39961755 91.53189588 -106.39892566 87.70939276 -106.40888596 83.88678169 C-106.41760238 80.29071238 -106.41144931 76.69495828 -106.39420319 73.09892273 C-106.38839483 71.16246464 -106.39721434 69.22597965 -106.40658569 67.28953552 C-106.32500716 56.00304805 -103.8573194 46.67087298 -95.9921875 38.30078125 C-85.83558269 28.72809274 -76.56478813 27.86462956 -63.15234375 28.046875 C-61.52853598 28.05434762 -59.90471911 28.06003572 -58.28089905 28.06402588 C-54.03433759 28.0792021 -49.78833489 28.1184131 -45.54199219 28.1628418 C-41.19799352 28.20396889 -36.85390341 28.2220739 -32.50976562 28.2421875 C-24.00625575 28.28491659 -15.50319764 28.35306871 -7 28.4375 C-7.01571045 27.69588623 -7.0314209 26.95427246 -7.04760742 26.19018555 C-7.10990714 22.83520104 -7.14897507 19.48033814 -7.1875 16.125 C-7.21263672 14.95775391 -7.23777344 13.79050781 -7.26367188 12.58789062 C-7.27333984 11.46962891 -7.28300781 10.35136719 -7.29296875 9.19921875 C-7.3086792 8.16756592 -7.32438965 7.13591309 -7.34057617 6.07299805 C-7 3.4375 -7 3.4375 -5.6027832 1.60449219 C-3.61742301 0.15894432 -2.44129865 0.00462367 0 0 Z " fill="#0CB2FC" transform="translate(235,95.5625)"/>
<path d="M0 0 C1.91989243 -0.01073296 1.91989243 -0.01073296 3.87857056 -0.02168274 C5.30009436 -0.024523 6.72161843 -0.02723473 8.1431427 -0.02983093 C9.63797666 -0.03609646 11.13280907 -0.04274334 12.62763977 -0.04974365 C17.54010434 -0.07077846 22.45256919 -0.08114648 27.36506653 -0.09111023 C29.05723398 -0.0951582 30.74940126 -0.09927514 32.44156837 -0.10346031 C40.39294611 -0.12251185 48.34431457 -0.13674214 56.29571074 -0.14507228 C65.46808183 -0.1548406 74.64021134 -0.18114958 83.81249732 -0.22157317 C90.90561983 -0.25175845 97.9986732 -0.2665435 105.09185869 -0.26985329 C109.32650713 -0.27220133 113.56089748 -0.2811292 117.79547691 -0.30631447 C121.78217532 -0.32964212 125.76844657 -0.33380977 129.75519562 -0.32355309 C131.21444179 -0.32305873 132.67370932 -0.32934972 134.1328907 -0.34310913 C150.05959119 -0.48482688 150.05959119 -0.48482688 156.39229107 5.59455395 C159.86540914 9.53838189 162.13866608 13.06053291 162.12510681 18.34864807 C162.1292393 19.59120298 162.1292393 19.59120298 162.13345528 20.85886002 C162.12266095 22.21442064 162.12266095 22.21442064 162.11164856 23.59736633 C162.11188963 24.56924267 162.1121307 25.541119 162.11237907 26.54244614 C162.11088689 29.68682271 162.09565835 32.83096188 162.07991028 35.97529602 C162.07696955 37.91718939 162.07492929 39.85908434 162.07380676 41.80097961 C162.06332286 48.99973427 162.03540045 56.19845498 162.00959778 63.39717102 C161.96834778 79.48467102 161.92709778 95.57217102 161.88459778 112.14717102 C101.49459778 112.14717102 41.10459778 112.14717102 -21.11540222 112.14717102 C-21.21852722 96.30717102 -21.32165222 80.46717102 -21.42790222 64.14717102 C-21.47342224 59.15592102 -21.51894226 54.16467102 -21.56584167 49.02217102 C-21.58842468 42.90107727 -21.58842468 42.90107727 -21.59262085 40.0304718 C-21.60027092 38.03659987 -21.61779878 36.04275027 -21.64328003 34.04902649 C-21.68005347 31.01883612 -21.68492677 27.99005217 -21.68302917 24.95967102 C-21.70101972 24.07972473 -21.71901026 23.19977844 -21.73754597 22.29316711 C-21.67698285 15.03451507 -19.09525287 10.3520308 -14.20133972 5.08857727 C-13.63673035 4.63353821 -13.07212097 4.17849915 -12.49040222 3.70967102 C-11.63575378 3.00004211 -11.63575378 3.00004211 -10.76383972 2.27607727 C-7.29073001 -0.10242678 -4.07214757 0.01560574 0 0 Z " fill="#FEFEFE" transform="translate(164.1154022216797,137.8528289794922)"/>
<path d="M0 0 C60.39 0 120.78 0 183 0 C183 29.90909091 183 29.90909091 176.25 36.8125 C168.86907615 41.78042952 162.52801089 42.42468662 153.859375 42.37109375 C151.71614411 42.38846052 149.57291498 42.40604504 147.4296875 42.42382812 C144.07646627 42.43393413 140.7233531 42.43748653 137.37011719 42.43579102 C134.11621124 42.43935161 130.86313388 42.46664035 127.609375 42.49609375 C126.60517517 42.48791122 125.60097534 42.4797287 124.56634521 42.47129822 C119.28719688 42.44446734 119.28719688 42.44446734 114.63037109 44.59912109 C114.09234863 45.39141113 113.55432617 46.18370117 113 47 C112.25476074 48.05340576 111.50952148 49.10681152 110.74169922 50.19213867 C109.9248509 51.43111967 109.11273601 52.67323074 108.3046875 53.91796875 C107.87116974 54.57581863 107.43765198 55.23366852 106.99099731 55.91145325 C105.61448305 58.00054326 104.24403292 60.09350083 102.875 62.1875 C101.06515815 64.9553262 99.24932884 67.71907799 97.4296875 70.48046875 C97.0150827 71.11897263 96.60047791 71.7574765 96.17330933 72.41532898 C93.22556774 76.88721613 93.22556774 76.88721613 91 78 C90.01604248 76.5162085 90.01604248 76.5162085 89.01220703 75.00244141 C86.58062583 71.33698579 84.14600257 67.67355942 81.71044922 64.01074219 C80.65623047 62.4243816 79.6028404 60.83746999 78.55029297 59.25 C77.03830381 56.96990325 75.52335737 54.69179688 74.0078125 52.4140625 C73.53691193 51.70255035 73.06601135 50.99103821 72.58084106 50.25796509 C70.8465028 47.65616018 69.21718521 45.21718521 67 43 C64.83407593 42.69694611 64.83407593 42.69694611 62.31005859 42.74462891 C61.33499359 42.73766998 60.35992859 42.73071106 59.35531616 42.72354126 C58.2970462 42.72453827 57.23877625 42.72553528 56.1484375 42.7265625 C53.91275552 42.70626163 51.67707848 42.68541064 49.44140625 42.6640625 C45.91288095 42.64151601 42.3845509 42.6250159 38.85595703 42.61914062 C35.45308967 42.60958335 32.05110576 42.57575072 28.6484375 42.5390625 C27.07925064 42.54663071 27.07925064 42.54663071 25.47836304 42.55435181 C17.57878733 42.44894303 12.36330413 40.75179429 6.25 35.75 C-3.42310088 23.92732115 0 17.21275224 0 0 Z " fill="#FDFEFE" transform="translate(143,265)"/>
<path d="M0 0 C2.7588692 2.11726217 3.87248075 3.30629422 4.50793457 6.76316833 C4.51111694 7.82286331 4.51429932 8.88255829 4.51757812 9.97436523 C4.53018677 11.17919052 4.54279541 12.38401581 4.55578613 13.62535095 C4.54364075 15.57230614 4.54364075 15.57230614 4.53125 17.55859375 C4.53394613 18.90853657 4.53782956 20.2584775 4.54284668 21.6084137 C4.54873824 24.43550128 4.54019219 27.26208269 4.52148438 30.08911133 C4.49871567 33.70527 4.511805 37.32023976 4.53577423 40.93635464 C4.55026089 43.72374858 4.54561299 46.51086287 4.53526306 49.29826546 C4.53131223 51.27741902 4.54342082 53.25658363 4.55578613 55.23570251 C4.54317749 56.44367996 4.53056885 57.65165741 4.51757812 58.89624023 C4.51439575 59.9567308 4.51121338 61.01722137 4.50793457 62.10984802 C3.87135285 65.73200335 2.58116188 67.4206108 0 70 C-3 70.5625 -3 70.5625 -6 70 C-8.81141748 67.8497752 -9.88077344 66.6695749 -10.50793457 63.14744568 C-10.51111694 62.04618851 -10.51429932 60.94493134 -10.51757812 59.81030273 C-10.53018677 58.55898056 -10.54279541 57.30765839 -10.55578613 56.01841736 C-10.54862707 54.65680375 -10.54042327 53.29519528 -10.53125 51.93359375 C-10.53394541 50.53401927 -10.53782825 49.13444662 -10.54284668 47.73487854 C-10.54873763 44.80524828 -10.54019135 41.87610658 -10.52148438 38.9465332 C-10.49867287 35.19118935 -10.51183273 31.43698759 -10.53577423 27.68168545 C-10.55022575 24.79315069 -10.5456298 21.90488697 -10.53526306 19.01634407 C-10.53259502 17.63165209 -10.53586832 16.24693549 -10.54518127 14.86227226 C-10.55533639 12.92828719 -10.53711394 10.99421579 -10.51757812 9.06030273 C-10.51439575 7.95984116 -10.51121338 6.85937958 -10.50793457 5.72557068 C-10 3 -10 3 -8.15515137 1.14857483 C-5.19594625 -0.42851556 -3.30630271 -0.48216914 0 0 Z " fill="#0BB1FC" transform="translate(379,166)"/>
<path d="M0 0 C3.72678961 0.6211316 4.68474503 1.56064264 7 4.5 C7.50793457 7.26316833 7.50793457 7.26316833 7.51757812 10.47436523 C7.53018677 11.67919052 7.54279541 12.88401581 7.55578613 14.12535095 C7.54364075 16.07230614 7.54364075 16.07230614 7.53125 18.05859375 C7.53394613 19.40853657 7.53782956 20.7584775 7.54284668 22.1084137 C7.54873824 24.93550128 7.54019219 27.76208269 7.52148438 30.58911133 C7.49871567 34.20527 7.511805 37.82023976 7.53577423 41.43635464 C7.55026089 44.22374858 7.54561299 47.01086287 7.53526306 49.79826546 C7.53131223 51.77741902 7.54342082 53.75658363 7.55578613 55.73570251 C7.54317749 56.94367996 7.53056885 58.15165741 7.51757812 59.39624023 C7.51439575 60.4567308 7.51121338 61.51722137 7.50793457 62.60984802 C6.87135285 66.23200335 5.58116188 67.9206108 3 70.5 C0 71.0625 0 71.0625 -3 70.5 C-5.78270823 68.363044 -6.87662269 67.18202955 -7.50793457 63.69213867 C-7.51111694 62.6116626 -7.51429932 61.53118652 -7.51757812 60.41796875 C-7.53649109 58.57585815 -7.53649109 58.57585815 -7.55578613 56.6965332 C-7.54862627 55.36018295 -7.54042227 54.02383795 -7.53125 52.6875 C-7.53394577 51.31274135 -7.53782889 49.93798456 -7.54284668 48.56323242 C-7.54873793 45.68487356 -7.54019176 42.80701191 -7.52148438 39.92871094 C-7.49869389 36.24295984 -7.51181913 32.55837378 -7.53577423 28.87266541 C-7.55024299 26.03470107 -7.54562154 23.19701202 -7.53526306 20.35903931 C-7.5325987 19.00029359 -7.53585541 17.64152272 -7.54518127 16.2828064 C-7.55536241 14.38255301 -7.53708729 12.48221176 -7.51757812 10.58203125 C-7.51439575 9.50155518 -7.51121338 8.4210791 -7.50793457 7.30786133 C-6.68261869 2.74551673 -4.52045795 0.75340966 0 0 Z " fill="#07B0FC" transform="translate(94,165.5)"/>
<path d="M0 0 C4.30543683 2.23551528 7.60229159 4.7579005 10 9 C10.85551012 13.33655128 11.01449644 17.21317725 8.7890625 21.1328125 C5.08571513 25.62570601 2.01400668 27.80509613 -3.875 28.375 C-8.19484309 28.26237839 -10.66918786 26.7885869 -14 24 C-16.89626035 20.70425546 -17.89660298 18.09600845 -18.3125 13.6875 C-17.83274239 8.02636016 -15.46822047 5.26800859 -11.25 1.625 C-7.26765099 -0.36617451 -4.36551215 -0.86437141 0 0 Z " fill="#08B1FC" transform="translate(281,187)"/>
<path d="M0 0 C3.53057 1.88844442 5.97482271 3.83267111 8.03515625 7.23828125 C8.90657109 12.43536795 8.62981939 16.95746834 6.41015625 21.73828125 C2.74055215 25.60102241 -0.65973874 27.36192962 -5.96484375 27.67578125 C-10.21114998 27.49716034 -12.72552986 26.02559785 -15.96484375 23.23828125 C-19.57805184 19.26375235 -19.46846318 14.97432002 -19.31640625 9.83203125 C-18.6794787 5.13292129 -16.23517313 3.26160214 -12.71484375 0.42578125 C-8.39112917 -1.44127732 -4.37166546 -1.69478084 0 0 Z " fill="#09B1FC" transform="translate(197.96484375,187.76171875)"/>
</svg>
